<?xml version="1.0" encoding="UTF-8" standalone="no"?><svg xmlns="http://www.w3.org/2000/svg" xmlns:xlink="http://www.w3.org/1999/xlink" contentScriptType="application/ecmascript" contentStyleType="text/css" height="258px" preserveAspectRatio="none" style="width:529px;height:258px;" version="1.1" viewBox="0 0 529 258" width="529px" zoomAndPan="magnify"><defs><filter height="300%" id="f1nrs40h30t093" width="300%" x="-1" y="-1"><feGaussianBlur result="blurOut" stdDeviation="2.0"/><feColorMatrix in="blurOut" result="blurOut2" type="matrix" values="0 0 0 0 0 0 0 0 0 0 0 0 0 0 0 0 0 0 .4 0"/><feOffset dx="4.0" dy="4.0" in="blurOut2" result="blurOut3"/><feBlend in="SourceGraphic" in2="blurOut3" mode="normal"/></filter></defs><g><text fill="#000000" font-family="sans-serif" font-size="18" lengthAdjust="spacingAndGlyphs" textLength="90" x="213" y="17.4023">系統架構圖</text><!--MD5=[6490c1672ca12d55543b2f8da3ee1eab]
cluster Server1Comp--><rect fill="#FFFFFF" filter="url(#f1nrs40h30t093)" height="97" style="stroke:#000000;stroke-width:1.5;" width="149" x="272" y="28.1992"/><path d="M376,28.1992 L376,37.6875 L366,47.6875 L272,47.6875 " fill="none" style="stroke:#000000;stroke-width:1.5;"/><text fill="#000000" font-family="sans-serif" font-size="14" font-weight="bold" lengthAdjust="spacingAndGlyphs" textLength="94" x="275" y="42.7344">DcardServer1</text><!--MD5=[d53692e15be582c4bfc05680a1b75a65]
cluster Server2Comp--><rect fill="#FFFFFF" filter="url(#f1nrs40h30t093)" height="97" style="stroke:#000000;stroke-width:1.5;" width="149" x="272" y="149.1992"/><path d="M376,149.1992 L376,158.6875 L366,168.6875 L272,168.6875 " fill="none" style="stroke:#000000;stroke-width:1.5;"/><text fill="#000000" font-family="sans-serif" font-size="14" font-weight="bold" lengthAdjust="spacingAndGlyphs" textLength="94" x="275" y="163.7344">DcardServer2</text><!--MD5=[028eee660d78f1fae7c55a248e7382ba]
entity RateLimiter1--><rect fill="#FEFECE" filter="url(#f1nrs40h30t093)" height="46.4883" style="stroke:#A80036;stroke-width:1.5;" width="117" x="288" y="63.1992"/><rect fill="#FEFECE" height="10" style="stroke:#A80036;stroke-width:1.5;" width="15" x="385" y="68.1992"/><rect fill="#FEFECE" height="2" style="stroke:#A80036;stroke-width:1.5;" width="4" x="383" y="70.1992"/><rect fill="#FEFECE" height="2" style="stroke:#A80036;stroke-width:1.5;" width="4" x="383" y="74.1992"/><text fill="#000000" font-family="sans-serif" font-size="14" lengthAdjust="spacingAndGlyphs" textLength="77" x="303" y="96.7344">RateLimiter</text><!--MD5=[755fcda62b2391a2a390c585b6538783]
entity RateLimiter2--><rect fill="#FEFECE" filter="url(#f1nrs40h30t093)" height="46.4883" style="stroke:#A80036;stroke-width:1.5;" width="117" x="288" y="184.1992"/><rect fill="#FEFECE" height="10" style="stroke:#A80036;stroke-width:1.5;" width="15" x="385" y="189.1992"/><rect fill="#FEFECE" height="2" style="stroke:#A80036;stroke-width:1.5;" width="4" x="383" y="191.1992"/><rect fill="#FEFECE" height="2" style="stroke:#A80036;stroke-width:1.5;" width="4" x="383" y="195.1992"/><text fill="#000000" font-family="sans-serif" font-size="14" lengthAdjust="spacingAndGlyphs" textLength="77" x="303" y="217.7344">RateLimiter</text><!--MD5=[7f2f8f021ba496bad1f94a1981c7f515]
entity Cache--><path d="M465,134.6992 C465,124.6992 493.5,124.6992 493.5,124.6992 C493.5,124.6992 522,124.6992 522,134.6992 L522,160.1875 C522,170.1875 493.5,170.1875 493.5,170.1875 C493.5,170.1875 465,170.1875 465,160.1875 L465,134.6992 " fill="#FFFFFF" filter="url(#f1nrs40h30t093)" style="stroke:#000000;stroke-width:1.5;"/><path d="M465,134.6992 C465,144.6992 493.5,144.6992 493.5,144.6992 C493.5,144.6992 522,144.6992 522,134.6992 " fill="none" style="stroke:#000000;stroke-width:1.5;"/><text fill="#000000" font-family="sans-serif" font-size="14" lengthAdjust="spacingAndGlyphs" textLength="37" x="475" y="162.2344">Redis</text><!--MD5=[cee30cc05dadadf4c4f2ecc3790dd59b]
entity ClientComp--><rect fill="#FEFECE" filter="url(#f1nrs40h30t093)" height="46.4883" style="stroke:#A80036;stroke-width:1.5;" width="80" x="7" y="124.1992"/><rect fill="#FEFECE" height="10" style="stroke:#A80036;stroke-width:1.5;" width="15" x="67" y="129.1992"/><rect fill="#FEFECE" height="2" style="stroke:#A80036;stroke-width:1.5;" width="4" x="65" y="131.1992"/><rect fill="#FEFECE" height="2" style="stroke:#A80036;stroke-width:1.5;" width="4" x="65" y="135.1992"/><text fill="#000000" font-family="sans-serif" font-size="14" lengthAdjust="spacingAndGlyphs" textLength="40" x="22" y="157.7344">Client</text><!--MD5=[9df4c4ef2f752607758981c5666f8795]
entity ProxyComp--><rect fill="#FEFECE" filter="url(#f1nrs40h30t093)" height="46.4883" style="stroke:#A80036;stroke-width:1.5;" width="81" x="147" y="124.1992"/><rect fill="#FEFECE" height="10" style="stroke:#A80036;stroke-width:1.5;" width="15" x="208" y="129.1992"/><rect fill="#FEFECE" height="2" style="stroke:#A80036;stroke-width:1.5;" width="4" x="206" y="131.1992"/><rect fill="#FEFECE" height="2" style="stroke:#A80036;stroke-width:1.5;" width="4" x="206" y="135.1992"/><text fill="#000000" font-family="sans-serif" font-size="14" lengthAdjust="spacingAndGlyphs" textLength="41" x="162" y="157.7344">Nginx</text><!--MD5=[fc4116821a382d712b8a85b7f7ed82d8]
link ClientComp to ProxyComp--><path d="M87.32,147.1992 C104.13,147.1992 123.86,147.1992 141.28,147.1992 " fill="none" id="ClientComp-to-ProxyComp" style="stroke:#A80036;stroke-width:1.0;"/><polygon fill="#A80036" points="146.6,147.1992,137.6,143.1992,141.6,147.1992,137.6,151.1992,146.6,147.1992" style="stroke:#A80036;stroke-width:1.0;"/><!--MD5=[9082c4a348b02243789672ebbad958dd]
link ProxyComp to RateLimiter1--><path d="M228.12,131.8092 C244.78,125.3292 264.58,117.6392 283.11,110.4392 " fill="none" id="ProxyComp-to-RateLimiter1" style="stroke:#A80036;stroke-width:1.0;"/><polygon fill="#A80036" points="287.8,108.6192,277.9619,108.159,283.1411,110.4342,280.8659,115.6134,287.8,108.6192" style="stroke:#A80036;stroke-width:1.0;"/><!--MD5=[e0867f41a764af0717604e01ded3d5a1]
link ProxyComp to RateLimiter2--><path d="M228.12,162.3392 C244.78,168.7092 264.58,176.2692 283.11,183.3592 " fill="none" id="ProxyComp-to-RateLimiter2" style="stroke:#A80036;stroke-width:1.0;"/><polygon fill="#A80036" points="287.8,185.1492,280.8215,178.1993,283.1296,183.3639,277.965,185.672,287.8,185.1492" style="stroke:#A80036;stroke-width:1.0;"/><!--MD5=[5c35823ad3324a1fe62adc0e78da9763]
link RateLimiter1 to Cache--><path d="M407.1,111.2692 C425.23,118.8992 444.48,126.9992 460.1,133.5692 " fill="none" id="RateLimiter1-Cache" style="stroke:#A80036;stroke-width:1.0;"/><polygon fill="#A80036" points="464.82,135.5592,458.0586,128.3979,460.2067,133.6311,454.9736,135.7792,464.82,135.5592" style="stroke:#A80036;stroke-width:1.0;"/><polygon fill="#A80036" points="402.32,109.2592,409.0545,116.4458,406.926,111.2046,412.1672,109.0761,402.32,109.2592" style="stroke:#A80036;stroke-width:1.0;"/><!--MD5=[f4bc6904eb07a4d1a08ca8ecc7e18b41]
link RateLimiter2 to Cache--><path d="M407.87,182.2192 C425.78,174.8092 444.7,166.9792 460.1,160.6092 " fill="none" id="RateLimiter2-Cache" style="stroke:#A80036;stroke-width:1.0;"/><polygon fill="#A80036" points="464.76,158.6792,454.9145,158.4225,460.1396,160.5901,457.972,165.8152,464.76,158.6792" style="stroke:#A80036;stroke-width:1.0;"/><polygon fill="#A80036" points="403.15,184.1692,412.9958,184.4151,407.7683,182.2533,409.9302,177.0258,403.15,184.1692" style="stroke:#A80036;stroke-width:1.0;"/><!--MD5=[da61859143d5ca9b7fd17f6db49bda41]
@startuml
title 系統架構圖
left to right direction


[Client] as ClientComp

[Nginx] as ProxyComp

frame "DcardServer1" as Server1Comp {
  [RateLimiter] as RateLimiter1
}

frame "DcardServer2" as Server2Comp {
  [RateLimiter] as RateLimiter2
}

database "Redis" as Cache {

}

ClientComp - -> ProxyComp
ProxyComp - -> RateLimiter1
ProxyComp - -> RateLimiter2
RateLimiter1 <- -> Cache
RateLimiter2 <- -> Cache
@enduml

PlantUML version 1.2020.22(Sun Dec 06 17:36:27 CST 2020)
(GPL source distribution)
Java Runtime: Java(TM) SE Runtime Environment
JVM: Java HotSpot(TM) 64-Bit Server VM
Default Encoding: UTF-8
Language: zh
Country: TW
--></g></svg>